<?xml version="1.0" standalone="no"?>
<!DOCTYPE svg PUBLIC "-//W3C//DTD SVG 20010904//EN"
 "http://www.w3.org/TR/2001/REC-SVG-20010904/DTD/svg10.dtd">
<svg version="1.0" xmlns="http://www.w3.org/2000/svg"
 width="327.000000pt" height="327.000000pt" viewBox="0 0 327.000000 327.000000"
 preserveAspectRatio="xMidYMid meet">

<g transform="translate(0.000000,327.000000) scale(0.100000,-0.100000)"
fill="#000000" stroke="none">
<path d="M1540 2467 c-207 -168 -249 -414 -95 -555 23 -23 62 -46 84 -53 28
-8 43 -19 47 -33 9 -40 -1 -721 -11 -720 -17 2 -74 126 -89 196 -30 136 -111
256 -227 337 -116 82 -242 116 -379 104 l-60 -6 0 -56 c0 -201 142 -406 343
-495 75 -33 143 -46 242 -46 l84 0 20 -46 c57 -127 70 -194 76 -388 7 -179 2
-266 -15 -266 -4 0 -15 39 -24 87 -10 49 -29 121 -42 162 -102 305 -398 531
-697 531 l-80 0 7 -92 c8 -124 30 -206 81 -314 111 -231 307 -394 557 -461 82
-22 366 -25 448 -4 254 64 458 226 570 455 62 125 80 193 87 320 l6 99 -105
-5 c-194 -10 -347 -84 -493 -240 -97 -103 -161 -230 -202 -398 -26 -111 -28
-113 -35 -75 -13 68 2 371 22 461 56 244 198 457 393 592 57 40 60 41 126 35
75 -6 123 11 173 64 40 42 76 130 79 193 l3 55 -75 0 c-95 -1 -156 -24 -204
-76 -43 -48 -55 -77 -55 -133 0 -38 -3 -44 -33 -58 -57 -27 -186 -138 -241
-207 -46 -58 -126 -175 -126 -185 0 -2 -12 -30 -27 -62 -24 -53 -27 -56 -33
-34 -3 14 -3 175 0 359 l5 334 45 15 c67 23 141 102 164 176 46 146 -17 303
-173 432 -36 30 -67 54 -70 54 -4 0 -35 -24 -71 -53z m111 -64 c46 -36 104
-108 131 -163 33 -67 31 -161 -4 -220 -62 -106 -175 -138 -268 -76 -95 62
-123 196 -66 308 28 56 139 178 161 178 7 0 27 -12 46 -27z m719 -578 c0 -33
-41 -113 -72 -142 -52 -49 -132 -53 -144 -8 -20 79 80 171 189 174 22 1 27 -3
27 -24z m-1300 -172 c126 -34 239 -127 302 -248 34 -65 62 -170 51 -187 -2 -5
-23 -8 -47 -8 -249 0 -456 177 -500 427 -5 30 -3 32 27 35 46 5 104 -2 167
-19z m-164 -508 c199 -22 429 -217 518 -441 44 -109 72 -283 48 -298 -4 -2
-41 2 -81 10 -92 17 -235 86 -316 151 -169 138 -284 354 -285 536 l0 58 33 -5
c17 -3 55 -8 83 -11z m1499 -52 c-21 -200 -124 -393 -280 -523 -72 -59 -235
-137 -325 -154 -41 -8 -79 -11 -83 -7 -13 13 11 172 38 251 100 293 339 482
634 499 23 1 23 0 16 -66z"/>
</g>
</svg>
